<svg version="1.2" xmlns="http://www.w3.org/2000/svg" viewBox="0 0 35 32" width="35" height="32"><style>.a{fill:#353535}</style><path class="a" d="m32.8 17.1v12.8h-25.5v-12.8h25.5m2.2-2.1h-29.9v17h29.9zm0 0v7.9l-3.1-3c-0.1 0-0.2 0.1-0.3 0.1-1 0-1.8-0.8-1.8-1.7 0-0.1 0.1-0.2 0.1-0.3l-3.1-3zm-6.1 6.8c1 0 1.8 0.8 1.8 1.7 0 1-0.8 1.7-1.8 1.7-0.9 0-1.7-0.7-1.7-1.7 0-0.9 0.8-1.7 1.7-1.7zm-8.8-2.7c3 0 5.3 2 5.3 4.4 0 2.5-2.3 4.5-5.3 4.5-2.9 0-5.3-2-5.3-4.5 0-2.4 2.4-4.4 5.3-4.4zm-8.8 2.7c1 0 1.8 0.8 1.8 1.7 0 1-0.8 1.7-1.8 1.7-1 0-1.8-0.7-1.8-1.7 0-0.9 0.8-1.7 1.8-1.7zm-6.1-6.8h8.1l-3 3c0 0.1 0 0.2 0 0.3 0 0.9-0.7 1.7-1.7 1.7-0.1 0-0.2-0.1-0.4-0.1l-3 3zm5.1 14l3 3h-8.1v-7.9l3 3c0.2-0.1 0.3-0.1 0.4-0.1 1 0 1.7 0.8 1.7 1.7 0 0.1 0 0.2 0 0.3zm21.7-1.9l3-3v7.9h-8.1l3.1-3c-0.1-0.1-0.1-0.2-0.1-0.3 0-0.9 0.8-1.7 1.8-1.7 0.1 0 0.2 0 0.3 0.1zm-6.9-18.6c1 0 1.8 0.8 1.8 1.7 0 1-0.8 1.7-1.8 1.7-0.9 0-1.7-0.7-1.7-1.7 0-0.9 0.8-1.7 1.7-1.7zm-22 10.7l-3-5.4 7.1-3.8 11.9-6.3 7.2-3.8 3.9 6.9 3.5 6.2h-5.2c0.1-0.4 0.4-0.7 0.8-0.9 0.1-0.1 0.2-0.1 0.3-0.1l0.4-1.2-2.8-4.8-1.2-0.3q-0.1 0.1-0.2 0.2c-0.9 0.4-2 0.1-2.4-0.7-0.1-0.1-0.1-0.2-0.1-0.3l-1.2-0.4-15.8 8.3v0.2h-1.1c-1.1 0-2.1 0.9-2.1 2zm19-7.4q0.3 0.6 0.4 1.2h-9.8c0.4-1.1 1.3-2 2.5-2.6 2.6-1.4 5.6-0.7 6.9 1.4z"/></svg>